<svg width="48" height="48" viewBox="0 0 48 48" fill="none" xmlns="http://www.w3.org/2000/svg">
<path d="M21 31.7698C19.5979 32.6555 18.6667 34.219 18.6667 36C18.6667 38.7614 20.9053 41 23.6667 41C26.4282 41 28.6667 38.7614 28.6667 36C28.6667 34.219 27.7356 32.6555 26.3335 31.7698M26 31.5V9.5C26 8.11929 24.8807 7 23.5 7C22.1193 7 21 8.11929 21 9.5V31.5" stroke="white" stroke-width="2"/>
<path d="M24 11H25M24 15H25M24 19H25M24 23H25M24 27H25M24 31H25" stroke="white" stroke-width="2" stroke-linecap="round"/>
</svg>
