<svg width="24" height="24" viewBox="0 0 24 24" fill="none" xmlns="http://www.w3.org/2000/svg">
<path d="M11.2474 5.62712L12 6.48721L12.7526 5.62712C15.6081 2.3637 21 4.31339 21 8.96857C21 11.0682 19.696 13.1125 17.812 15.1098C16.886 16.0915 15.8615 17.0194 14.8629 17.9008C14.676 18.0657 14.4892 18.2297 14.3038 18.3925C13.5131 19.0867 12.7481 19.7584 12.1171 20.3795C12.0968 20.3996 12.0575 20.4207 12 20.4207C11.9425 20.4207 11.9032 20.3996 11.8829 20.3795C11.2519 19.7584 10.4869 19.0867 9.69619 18.3925C9.51078 18.2297 9.32396 18.0657 9.13713 17.9008C8.13847 17.0194 7.11402 16.0915 6.18802 15.1098C4.30397 13.1125 3 11.0682 3 8.96859C3 4.31341 8.39194 2.36371 11.2474 5.62712Z" stroke="#11DCE8" stroke-width="2" stroke-linecap="round"/>
</svg>
