<svg width="26" height="21" viewBox="0 0 26 21" fill="none" xmlns="http://www.w3.org/2000/svg">
<path d="M26 2.48307C25.0446 2.90741 24.0169 3.19055 22.933 3.32452C24.035 2.66845 24.8828 1.62207 25.2807 0.385965C24.2495 0.992069 23.107 1.43741 21.8916 1.67203C20.921 0.640138 19.5367 0 18.0028 0C15.0564 0 12.6682 2.37372 12.6682 5.30069C12.6682 5.7149 12.7166 6.11824 12.8075 6.51C8.37491 6.28696 4.44346 4.17393 1.81335 0.967449C1.35117 1.75097 1.09119 2.66845 1.09119 3.63662C1.09119 5.47666 2.03072 7.09655 3.46349 8.05097C2.58895 8.02417 1.76569 7.78014 1.04497 7.3891C1.04497 7.40503 1.04497 7.42893 1.04497 7.45138C1.04497 10.0228 2.88432 12.1641 5.32233 12.6514C4.87676 12.7738 4.40591 12.8419 3.92062 12.8419C3.57615 12.8419 3.24034 12.8028 2.91537 12.7441C3.5942 14.8456 5.56354 16.3814 7.89684 16.4271C6.07122 17.8464 3.77185 18.6965 1.27173 18.6965C0.839874 18.6965 0.41741 18.6719 0 18.6212C2.36219 20.1209 5.16707 21 8.17776 21C17.9883 21 23.3554 12.9215 23.3554 5.91331C23.3554 5.68376 23.3482 5.45493 23.3374 5.229C24.3845 4.48748 25.2872 3.5519 26 2.48307Z" fill="#03A9F4"/>
</svg>
