<svg width="48" height="48" viewBox="0 0 48 48" fill="none" xmlns="http://www.w3.org/2000/svg">
<path d="M10.3 25.8099C11.3332 22.4005 11.8498 20.6958 13.0516 19.5881C13.3648 19.2994 13.7078 19.0449 14.0749 18.8289C15.4835 18 17.2648 18 20.8273 18H26.506C30.0686 18 31.8498 18 33.2584 18.8289C33.6255 19.0449 33.9686 19.2994 34.2818 19.5881C35.4836 20.6958 36.0001 22.4005 37.0333 25.8099V25.8099C38.8112 31.677 39.7002 34.6106 38.5597 36.7859C38.2705 37.3376 37.8971 37.8409 37.453 38.2777C35.7019 40 32.6366 40 26.506 40H20.8273C14.6967 40 11.6315 40 9.88034 38.2777C9.43622 37.8409 9.06283 37.3376 8.77359 36.7859C7.63317 34.6106 8.52212 31.677 10.3 25.8099V25.8099Z" stroke="white" stroke-width="2"/>
<path d="M18.5859 27.8275C19.1011 26.1472 20.6527 25 22.4102 25H24.5898C26.3473 25 27.8989 26.1472 28.4141 27.8275V27.8275C29.2025 30.3989 27.2794 33 24.5898 33H22.4102C19.7206 33 17.7975 30.3989 18.5859 27.8275V27.8275Z" stroke="white" stroke-width="2"/>
<circle cx="23.6666" cy="13" r="5" stroke="white" stroke-width="2"/>
</svg>
