<svg width="48" height="48" viewBox="0 0 48 48" fill="none" xmlns="http://www.w3.org/2000/svg">
<path d="M20.2307 10.4705L12.0276 18.6737C6.97466 23.7268 6.97471 31.9194 12.0277 36.9724C17.0808 42.0255 25.2734 42.0255 30.3265 36.9725L38.5296 28.7694M20.2307 10.4705L22.287 8.41423C22.9536 7.74756 23.287 7.41422 23.7012 7.41422C24.1154 7.41422 24.4487 7.74755 25.1154 8.41423L26.704 10.0028C27.3706 10.6694 27.7039 11.0028 27.7039 11.417C27.7039 11.8312 27.3706 12.1645 26.704 12.8312L24.6477 14.8875M20.2307 10.4705L24.6477 14.8875M24.6477 14.8875L16.4447 23.0906C13.8311 25.7043 13.8311 29.9418 16.4447 32.5555C19.0584 35.1691 23.296 35.1691 25.9096 32.5555L34.1126 24.3524M34.1126 24.3524L36.1689 22.2962C36.8356 21.6295 37.1689 21.2962 37.5831 21.2962C37.9973 21.2962 38.3307 21.6295 38.9973 22.2962L40.5859 23.8847C41.2526 24.5514 41.5859 24.8847 41.5859 25.2989C41.5859 25.7132 41.2526 26.0465 40.5859 26.7132L38.5296 28.7694M34.1126 24.3524L38.5296 28.7694" stroke="white" stroke-width="2"/>
<path d="M35.6904 15.2032L29.323 17.7845L31.7132 19.1804L25.973 21.8918" stroke="white" stroke-width="2" stroke-linecap="round"/>
</svg>
