<svg width="48" height="48" viewBox="0 0 48 48" fill="none" xmlns="http://www.w3.org/2000/svg">
<path d="M33.9853 10.6508C34.652 9.98412 34.9853 9.65079 35.3995 9.65079C35.8137 9.65079 36.1471 9.98412 36.8137 10.6508L40.3493 14.1863C41.016 14.853 41.3493 15.1863 41.3493 15.6005C41.3493 16.0147 41.016 16.3481 40.3493 17.0147L17.0148 40.3493C16.3481 41.0159 16.0148 41.3493 15.6005 41.3493C15.1863 41.3493 14.853 41.0159 14.1863 40.3493L10.6508 36.8137C9.98413 36.1471 9.6508 35.8137 9.6508 35.3995C9.6508 34.9853 9.98413 34.652 10.6508 33.9853L33.9853 10.6508Z" stroke="white" stroke-width="2"/>
<path d="M36.8137 16.3076L38.935 18.4289M33.9853 19.136L36.1066 21.2574M31.1569 21.9645L33.2782 24.0858M28.3284 24.7929L30.4498 26.9142M25.5 27.6213L27.6213 29.7426M22.6716 30.4498L24.7929 32.5711M19.8432 33.2782L21.9645 35.3995M17.0147 36.1066L19.1361 38.2279" stroke="white" stroke-width="2" stroke-linecap="round"/>
<path d="M22.8376 14.7101C21.7856 13.558 20.2714 12.8353 18.5883 12.8353C15.411 12.8353 12.8353 15.411 12.8353 18.5883C12.8353 20.2756 13.5617 21.7933 14.7188 22.8456" stroke="white" stroke-width="2" stroke-linecap="round"/>
<path d="M18.5883 10.4382V9" stroke="white" stroke-width="2" stroke-linecap="round"/>
<path d="M12.8253 24.3513L11.8083 25.3683" stroke="white" stroke-width="2" stroke-linecap="round"/>
<path d="M8.99999 18.5883L10.4382 18.5883" stroke="white" stroke-width="2" stroke-linecap="round"/>
<path d="M11.8083 11.8083L12.8253 12.8253" stroke="white" stroke-width="2" stroke-linecap="round"/>
<path d="M25.3682 11.8084L24.3512 12.8254" stroke="white" stroke-width="2" stroke-linecap="round"/>
</svg>
