<svg width="48" height="48" viewBox="0 0 48 48" fill="none" xmlns="http://www.w3.org/2000/svg">
<path d="M20.4837 36.7472C23.8801 35.5963 27.5231 33.7526 30.4767 30.799C37.0496 24.2261 38.1259 14.2392 38.3022 11.1529C38.333 10.6132 37.9345 10.2148 37.3948 10.2456C34.3085 10.4218 24.3216 11.4982 17.7488 18.0711C14.7952 21.0247 12.9515 24.6676 11.8006 28.064C13.6794 28.8949 15.4761 30.0224 17.0007 31.547C18.5254 33.0717 19.6529 34.8683 20.4837 36.7472Z" stroke="white" stroke-width="2" stroke-linecap="round"/>
<circle cx="25.3345" cy="23.2131" r="4" transform="rotate(45 25.3345 23.2131)" stroke="white" stroke-width="2"/>
<path d="M14.52 22.2981C13.6966 21.8619 12.736 21.6807 11.7445 21.7746C10.753 21.8684 9.76914 22.2337 8.90178 22.8299C8.03443 23.4261 7.31732 24.2301 6.82974 25.153C6.34217 26.0759 6.10312 27.0817 6.13902 28.0592L11.8995 28.1629" stroke="white" stroke-width="2"/>
<path d="M26.2495 34.0277C26.6857 34.8512 26.8669 35.8117 26.773 36.8033C26.6792 37.7948 26.3139 38.7786 25.7177 39.6459C25.1215 40.5133 24.3175 41.2304 23.3946 41.718C22.4717 42.2056 21.4659 42.4446 20.4884 42.4087L20.3847 36.6482" stroke="white" stroke-width="2"/>
<path d="M15.0592 29.9084C14.3047 30.2653 13.5613 30.7437 12.9201 31.3849C10.7733 33.5317 10.4517 36.8235 10.4039 37.8413C10.3955 38.0193 10.5284 38.1521 10.7063 38.1437C11.7242 38.0959 15.0159 37.7743 17.1627 35.6276C17.804 34.9863 18.2824 34.2429 18.6393 33.4885" stroke="white" stroke-width="2" stroke-linecap="round"/>
</svg>
