<svg width="24" height="24" viewBox="0 0 24 24" fill="none" xmlns="http://www.w3.org/2000/svg">
<path d="M21 12C21 16.9706 16.9706 21 12 21C7.02944 21 3 16.9706 3 12C3 7.02944 7.02944 3 12 3C16.9706 3 21 7.02944 21 12Z" stroke="#8D8E99" stroke-width="2" stroke-linecap="round"/>
<path d="M18 7C16.5341 7.61323 14.3894 8 12 8C9.61062 8 7.46589 7.61323 6 7" stroke="#8D8E99" stroke-width="2" stroke-linecap="round"/>
<path d="M6 17C7.46589 16.3868 9.61061 16 12 16C14.3894 16 16.5341 16.3868 18 17" stroke="#8D8E99" stroke-width="2" stroke-linecap="round"/>
<path d="M12 21C11.2021 21 10.2106 20.3272 9.35889 18.6239C8.53713 16.9803 8 14.6398 8 12C8 9.36016 8.53713 7.01967 9.35889 5.37615C10.2106 3.67281 11.2021 3 12 3C12.7979 3 13.7894 3.67281 14.6411 5.37615C15.4629 7.01967 16 9.36016 16 12C16 14.6398 15.4629 16.9803 14.6411 18.6239C13.7894 20.3272 12.7979 21 12 21Z" stroke="#8D8E99" stroke-width="2" stroke-linecap="round"/>
</svg>
