<svg width="30" height="30" viewBox="0 0 30 30" fill="none" xmlns="http://www.w3.org/2000/svg">
<path d="M4.3934 4.39341C7.20644 1.58036 11.0218 0 15 0C18.9782 0 22.7936 1.58036 25.6066 4.39341C28.4196 7.20646 30 11.0218 30 15C30 18.9783 28.4196 22.7936 25.6066 25.6067C22.804 28.4092 19.0067 29.9883 15.0445 30C15.7198 29.9974 16.3793 29.935 17.0306 29.8469V18.9759H20.9124L21.5219 15.0324H17.0298V12.8772C17.0298 11.239 17.565 9.78636 19.0974 9.78636H21.5598V6.34503L21.5365 6.34189C21.0947 6.28216 20.1818 6.15872 18.4832 6.15872C14.8729 6.15872 12.7563 8.0653 12.7563 12.409V15.0324H9.04502V18.9759H12.7563V29.8146C13.4762 29.9228 14.2051 29.997 14.9528 30C10.9916 29.9875 7.19531 28.4086 4.3934 25.6067C1.58035 22.7936 0 18.9783 0 15C0 11.0218 1.58035 7.20646 4.3934 4.39341Z" fill="#4267B2"/>
</svg>
