<svg width="214" height="77" viewBox="0 0 214 77" fill="none" xmlns="http://www.w3.org/2000/svg">
<path d="M30.8965 73.6929V65.2896H31.6648V73.6929H30.8965ZM31.6648 69.8874V69.1911H35.3262V69.8874H31.6648ZM31.6648 65.9859V65.2896H35.7344V65.9859H31.6648Z" fill="white"/>
<path d="M37.2506 70.4036C37.2506 69.7554 37.3706 69.2311 37.6107 68.831C37.8588 68.4308 38.1749 68.1387 38.5591 67.9546C38.9512 67.7626 39.3634 67.6665 39.7956 67.6665V68.3268C39.4434 68.3268 39.1033 68.3908 38.7752 68.5189C38.4551 68.6389 38.1909 68.847 37.9829 69.1431C37.7748 69.4312 37.6707 69.8274 37.6707 70.3316L37.2506 70.4036ZM36.9505 73.6929V67.6905H37.6707V73.6929H36.9505Z" fill="white"/>
<path d="M43.4122 73.837C42.836 73.837 42.3238 73.7049 41.8756 73.4408C41.4354 73.1687 41.0873 72.7966 40.8312 72.3244C40.5831 71.8522 40.459 71.308 40.459 70.6917C40.459 70.0755 40.5831 69.5313 40.8312 69.0591C41.0793 68.5869 41.4194 68.2187 41.8516 67.9546C42.2918 67.6825 42.792 67.5465 43.3522 67.5465C43.9204 67.5465 44.4006 67.6865 44.7927 67.9666C45.1929 68.2388 45.497 68.6189 45.7051 69.1071C45.9132 69.5873 46.0172 70.1435 46.0172 70.7758H45.2969C45.2969 70.2716 45.2249 69.8274 45.0809 69.4432C44.9368 69.0591 44.7207 68.759 44.4326 68.5429C44.1445 68.3188 43.7843 68.2067 43.3522 68.2067C42.928 68.2067 42.5519 68.3148 42.2237 68.5309C41.8956 68.739 41.6395 69.0311 41.4554 69.4072C41.2714 69.7754 41.1793 70.2035 41.1793 70.6917C41.1793 71.1799 41.2754 71.6121 41.4674 71.9882C41.6595 72.3564 41.9236 72.6485 42.2597 72.8646C42.5959 73.0727 42.98 73.1767 43.4122 73.1767C43.8764 73.1767 44.2685 73.0647 44.5887 72.8406C44.9168 72.6085 45.1729 72.3124 45.357 71.9522L45.9572 72.3244C45.8051 72.6205 45.6051 72.8846 45.357 73.1167C45.1169 73.3408 44.8328 73.5168 44.5046 73.6449C44.1765 73.7729 43.8124 73.837 43.4122 73.837ZM40.9512 70.7758V70.1155H45.501V70.7758H40.9512Z" fill="white"/>
<path d="M49.9304 73.837C49.3542 73.837 48.842 73.7049 48.3938 73.4408C47.9536 73.1687 47.6055 72.7966 47.3494 72.3244C47.1013 71.8522 46.9772 71.308 46.9772 70.6917C46.9772 70.0755 47.1013 69.5313 47.3494 69.0591C47.5975 68.5869 47.9376 68.2187 48.3698 67.9546C48.81 67.6825 49.3102 67.5465 49.8704 67.5465C50.4386 67.5465 50.9188 67.6865 51.311 67.9666C51.7111 68.2388 52.0152 68.6189 52.2233 69.1071C52.4314 69.5873 52.5354 70.1435 52.5354 70.7758H51.8152C51.8152 70.2716 51.7431 69.8274 51.5991 69.4432C51.455 69.0591 51.2389 68.759 50.9508 68.5429C50.6627 68.3188 50.3026 68.2067 49.8704 68.2067C49.4462 68.2067 49.0701 68.3148 48.7419 68.5309C48.4138 68.739 48.1577 69.0311 47.9736 69.4072C47.7896 69.7754 47.6975 70.2035 47.6975 70.6917C47.6975 71.1799 47.7936 71.6121 47.9856 71.9882C48.1777 72.3564 48.4418 72.6485 48.778 72.8646C49.1141 73.0727 49.4982 73.1767 49.9304 73.1767C50.3946 73.1767 50.7867 73.0647 51.1069 72.8406C51.435 72.6085 51.6911 72.3124 51.8752 71.9522L52.4754 72.3244C52.3234 72.6205 52.1233 72.8846 51.8752 73.1167C51.6351 73.3408 51.351 73.5168 51.0228 73.6449C50.6947 73.7729 50.3306 73.837 49.9304 73.837ZM47.4694 70.7758V70.1155H52.0192V70.7758H47.4694Z" fill="white"/>
<path d="M60.9984 71.1599L57.349 65.7338L57.6251 65.5177L57.9252 65.2896L61.3706 70.3916L60.9984 71.1599ZM57.1569 73.6929V65.2896H57.9252V73.6929H57.1569ZM60.9984 71.1599L60.6503 70.3916L64.0836 65.2896L64.3838 65.5177L64.6479 65.7218L60.9984 71.1599ZM64.0836 73.6929V65.2896H64.8519V73.6929H64.0836Z" fill="white"/>
<path d="M69.5436 73.837C68.9674 73.837 68.4552 73.7049 68.007 73.4408C67.5669 73.1687 67.2187 72.7966 66.9626 72.3244C66.7145 71.8522 66.5905 71.308 66.5905 70.6917C66.5905 70.0755 66.7145 69.5313 66.9626 69.0591C67.2107 68.5869 67.5548 68.2187 67.995 67.9546C68.4432 67.6825 68.9514 67.5465 69.5196 67.5465C70.0959 67.5465 70.6041 67.6825 71.0442 67.9546C71.4924 68.2187 71.8406 68.5869 72.0886 69.0591C72.3367 69.5313 72.4608 70.0755 72.4608 70.6917C72.4608 71.308 72.3367 71.8522 72.0886 72.3244C71.8406 72.7966 71.4964 73.1687 71.0562 73.4408C70.6161 73.7049 70.1119 73.837 69.5436 73.837ZM69.5436 73.1767C69.9758 73.1767 70.356 73.0727 70.6841 72.8646C71.0122 72.6485 71.2683 72.3564 71.4524 71.9882C71.6445 71.6121 71.7405 71.1799 71.7405 70.6917C71.7405 70.2035 71.6445 69.7754 71.4524 69.4072C71.2683 69.0311 71.0082 68.739 70.6721 68.5309C70.336 68.3148 69.9518 68.2067 69.5196 68.2067C69.0875 68.2067 68.7033 68.3148 68.3672 68.5309C68.039 68.739 67.7789 69.0311 67.5869 69.4072C67.4028 69.7754 67.3108 70.2035 67.3108 70.6917C67.3108 71.1799 67.4068 71.6121 67.5989 71.9882C67.7909 72.3564 68.055 72.6485 68.3912 72.8646C68.7273 73.0727 69.1115 73.1767 69.5436 73.1767Z" fill="white"/>
<path d="M73.9026 73.6929V65.2896H74.6229V72.5765L74.5869 73.6929H73.9026ZM76.7357 73.837C76.2315 73.837 75.7833 73.7049 75.3912 73.4408C74.999 73.1687 74.6909 72.7966 74.4668 72.3244C74.2507 71.8442 74.1427 71.3 74.1427 70.6917C74.1427 70.0755 74.2507 69.5313 74.4668 69.0591C74.6909 68.5869 74.999 68.2187 75.3912 67.9546C75.7833 67.6825 76.2315 67.5465 76.7357 67.5465C77.2639 67.5465 77.7321 67.6825 78.1403 67.9546C78.5484 68.2187 78.8685 68.5869 79.1006 69.0591C79.3327 69.5313 79.4488 70.0755 79.4488 70.6917C79.4488 71.3 79.3327 71.8442 79.1006 72.3244C78.8685 72.7966 78.5484 73.1687 78.1403 73.4408C77.7321 73.7049 77.2639 73.837 76.7357 73.837ZM76.5916 73.1887C77.0078 73.1887 77.376 73.0847 77.6961 72.8766C78.0162 72.6605 78.2683 72.3644 78.4524 71.9882C78.6365 71.6121 78.7285 71.1799 78.7285 70.6917C78.7285 70.2035 78.6365 69.7714 78.4524 69.3952C78.2763 69.0191 78.0282 68.7269 77.7081 68.5189C77.388 68.3028 77.0198 68.1947 76.6037 68.1947C76.2195 68.1947 75.8754 68.3028 75.5712 68.5189C75.2751 68.7269 75.043 69.0191 74.875 69.3952C74.7069 69.7714 74.6229 70.2035 74.6229 70.6917C74.6229 71.1799 74.7069 71.6121 74.875 71.9882C75.043 72.3644 75.2751 72.6605 75.5712 72.8766C75.8674 73.0847 76.2075 73.1887 76.5916 73.1887Z" fill="white"/>
<path d="M80.9377 73.6929L80.9618 67.6905H81.682L81.658 73.6929H80.9377ZM81.3099 66.1299C81.1818 66.1299 81.0698 66.0819 80.9738 65.9859C80.8777 65.8898 80.8297 65.7778 80.8297 65.6497C80.8297 65.5137 80.8777 65.4016 80.9738 65.3136C81.0698 65.2176 81.1818 65.1695 81.3099 65.1695C81.4459 65.1695 81.558 65.2176 81.646 65.3136C81.7421 65.4016 81.7901 65.5137 81.7901 65.6497C81.7901 65.7778 81.7421 65.8898 81.646 65.9859C81.558 66.0819 81.4459 66.1299 81.3099 66.1299Z" fill="white"/>
<path d="M83.5275 73.6929L83.5515 65.2896H84.2718L84.2478 73.6929H83.5275Z" fill="white"/>
<path d="M88.6645 73.837C88.0883 73.837 87.5761 73.7049 87.1279 73.4408C86.6877 73.1687 86.3396 72.7966 86.0835 72.3244C85.8354 71.8522 85.7113 71.308 85.7113 70.6917C85.7113 70.0755 85.8354 69.5313 86.0835 69.0591C86.3316 68.5869 86.6717 68.2187 87.1039 67.9546C87.544 67.6825 88.0442 67.5465 88.6045 67.5465C89.1727 67.5465 89.6529 67.6865 90.045 67.9666C90.4452 68.2388 90.7493 68.6189 90.9574 69.1071C91.1655 69.5873 91.2695 70.1435 91.2695 70.7758H90.5492C90.5492 70.2716 90.4772 69.8274 90.3332 69.4432C90.1891 69.0591 89.973 68.759 89.6849 68.5429C89.3968 68.3188 89.0366 68.2067 88.6045 68.2067C88.1803 68.2067 87.8042 68.3148 87.476 68.5309C87.1479 68.739 86.8918 69.0311 86.7077 69.4072C86.5236 69.7754 86.4316 70.2035 86.4316 70.6917C86.4316 71.1799 86.5276 71.6121 86.7197 71.9882C86.9118 72.3564 87.1759 72.6485 87.512 72.8646C87.8482 73.0727 88.2323 73.1767 88.6645 73.1767C89.1287 73.1767 89.5208 73.0647 89.841 72.8406C90.1691 72.6085 90.4252 72.3124 90.6093 71.9522L91.2095 72.3244C91.0574 72.6205 90.8574 72.8846 90.6093 73.1167C90.3692 73.3408 90.0851 73.5168 89.7569 73.6449C89.4288 73.7729 89.0646 73.837 88.6645 73.837ZM86.2035 70.7758V70.1155H90.7533V70.7758H86.2035Z" fill="white"/>
<path d="M101.701 73.6929L98.2679 65.2896H99.0602L102.518 73.6929H101.701ZM94.8106 73.6929L98.2679 65.2896H99.0602L95.6269 73.6929H94.8106ZM96.4432 71.0879V70.3916H100.885V71.0879H96.4432Z" fill="white"/>
<path d="M103.599 76.0939V67.6905H104.272L104.32 68.795V76.0939H103.599ZM106.432 73.837C105.928 73.837 105.48 73.7049 105.088 73.4408C104.696 73.1687 104.388 72.7966 104.164 72.3244C103.947 71.8442 103.839 71.3 103.839 70.6917C103.839 70.0755 103.947 69.5313 104.164 69.0591C104.388 68.5869 104.696 68.2187 105.088 67.9546C105.48 67.6825 105.928 67.5465 106.432 67.5465C106.961 67.5465 107.429 67.6825 107.837 67.9546C108.245 68.2187 108.565 68.5869 108.797 69.0591C109.029 69.5313 109.146 70.0755 109.146 70.6917C109.146 71.3 109.029 71.8442 108.797 72.3244C108.565 72.7966 108.245 73.1687 107.837 73.4408C107.429 73.7049 106.961 73.837 106.432 73.837ZM106.288 73.1887C106.705 73.1887 107.073 73.0847 107.393 72.8766C107.713 72.6605 107.965 72.3644 108.149 71.9882C108.333 71.6121 108.425 71.1799 108.425 70.6917C108.425 70.2035 108.333 69.7714 108.149 69.3952C107.973 69.0191 107.725 68.7269 107.405 68.5189C107.085 68.3028 106.717 68.1947 106.3 68.1947C105.916 68.1947 105.572 68.3028 105.268 68.5189C104.972 68.7269 104.74 69.0191 104.572 69.3952C104.404 69.7714 104.32 70.2035 104.32 70.6917C104.32 71.1799 104.404 71.6121 104.572 71.9882C104.74 72.3644 104.972 72.6605 105.268 72.8766C105.564 73.0847 105.904 73.1887 106.288 73.1887Z" fill="white"/>
<path d="M110.645 76.0939V67.6905H111.317L111.365 68.795V76.0939H110.645ZM113.478 73.837C112.974 73.837 112.526 73.7049 112.134 73.4408C111.742 73.1687 111.433 72.7966 111.209 72.3244C110.993 71.8442 110.885 71.3 110.885 70.6917C110.885 70.0755 110.993 69.5313 111.209 69.0591C111.433 68.5869 111.742 68.2187 112.134 67.9546C112.526 67.6825 112.974 67.5465 113.478 67.5465C114.006 67.5465 114.475 67.6825 114.883 67.9546C115.291 68.2187 115.611 68.5869 115.843 69.0591C116.075 69.5313 116.191 70.0755 116.191 70.6917C116.191 71.3 116.075 71.8442 115.843 72.3244C115.611 72.7966 115.291 73.1687 114.883 73.4408C114.475 73.7049 114.006 73.837 113.478 73.837ZM113.334 73.1887C113.75 73.1887 114.118 73.0847 114.439 72.8766C114.759 72.6605 115.011 72.3644 115.195 71.9882C115.379 71.6121 115.471 71.1799 115.471 70.6917C115.471 70.2035 115.379 69.7714 115.195 69.3952C115.019 69.0191 114.771 68.7269 114.451 68.5189C114.13 68.3028 113.762 68.1947 113.346 68.1947C112.962 68.1947 112.618 68.3028 112.314 68.5189C112.018 68.7269 111.786 69.0191 111.617 69.3952C111.449 69.7714 111.365 70.2035 111.365 70.6917C111.365 71.1799 111.449 71.6121 111.617 71.9882C111.786 72.3644 112.018 72.6605 112.314 72.8766C112.61 73.0847 112.95 73.1887 113.334 73.1887Z" fill="white"/>
<path d="M123.957 73.885C123.349 73.885 122.805 73.7529 122.325 73.4888C121.852 73.2167 121.48 72.8446 121.208 72.3724C120.944 71.9002 120.812 71.36 120.812 70.7517H121.58C121.58 71.2239 121.68 71.6441 121.881 72.0122C122.089 72.3804 122.373 72.6685 122.733 72.8766C123.101 73.0847 123.517 73.1887 123.981 73.1887C124.454 73.1887 124.87 73.0847 125.23 72.8766C125.598 72.6685 125.882 72.3804 126.082 72.0122C126.29 71.6441 126.394 71.2239 126.394 70.7517H127.163C127.163 71.36 127.027 71.9002 126.754 72.3724C126.482 72.8446 126.102 73.2167 125.614 73.4888C125.134 73.7529 124.582 73.885 123.957 73.885ZM120.812 70.7517V65.2896H121.58V70.7517H120.812ZM126.394 70.7517V65.2896H127.163V70.7517H126.394Z" fill="white"/>
<path d="M129.443 73.6929V65.2896H130.212V73.6929H129.443Z" fill="white"/>
<path d="M137.266 73.6929V65.9859H138.035V73.6929H137.266ZM134.529 65.9859V65.2896H140.772V65.9859H134.529Z" fill="white"/>
<path d="M143.671 73.837C143.094 73.837 142.582 73.7049 142.134 73.4408C141.694 73.1687 141.346 72.7966 141.09 72.3244C140.842 71.8522 140.717 71.308 140.717 70.6917C140.717 70.0755 140.842 69.5313 141.09 69.0591C141.338 68.5869 141.678 68.2187 142.11 67.9546C142.55 67.6825 143.05 67.5465 143.611 67.5465C144.179 67.5465 144.659 67.6865 145.051 67.9666C145.451 68.2388 145.755 68.6189 145.964 69.1071C146.172 69.5873 146.276 70.1435 146.276 70.7758H145.555C145.555 70.2716 145.483 69.8274 145.339 69.4432C145.195 69.0591 144.979 68.759 144.691 68.5429C144.403 68.3188 144.043 68.2067 143.611 68.2067C143.186 68.2067 142.81 68.3148 142.482 68.5309C142.154 68.739 141.898 69.0311 141.714 69.4072C141.53 69.7754 141.438 70.2035 141.438 70.6917C141.438 71.1799 141.534 71.6121 141.726 71.9882C141.918 72.3564 142.182 72.6485 142.518 72.8646C142.854 73.0727 143.238 73.1767 143.671 73.1767C144.135 73.1767 144.527 73.0647 144.847 72.8406C145.175 72.6085 145.431 72.3124 145.615 71.9522L146.216 72.3244C146.064 72.6205 145.864 72.8846 145.615 73.1167C145.375 73.3408 145.091 73.5168 144.763 73.6449C144.435 73.7729 144.071 73.837 143.671 73.837ZM141.21 70.7758V70.1155H145.759V70.7758H141.21Z" fill="white"/>
<path d="M147.596 73.6929V67.6905H148.268L148.316 68.795V73.6929H147.596ZM151.906 73.6929V70.6197L152.626 70.2595V73.6929H151.906ZM156.215 73.6929V70.6197L156.936 70.2595V73.6929H156.215ZM151.906 70.6197C151.906 69.9554 151.825 69.4512 151.665 69.1071C151.513 68.763 151.301 68.5309 151.029 68.4108C150.765 68.2828 150.465 68.2187 150.129 68.2187C149.561 68.2187 149.116 68.4308 148.796 68.855C148.476 69.2712 148.316 69.8554 148.316 70.6077H147.872C147.872 69.9674 147.96 69.4192 148.136 68.963C148.32 68.5069 148.588 68.1587 148.94 67.9186C149.3 67.6705 149.737 67.5465 150.249 67.5465C150.969 67.5465 151.545 67.7706 151.978 68.2187C152.418 68.6669 152.634 69.3472 152.626 70.2595L151.906 70.6197ZM156.215 70.6197C156.215 69.9554 156.135 69.4512 155.975 69.1071C155.823 68.763 155.611 68.5309 155.339 68.4108C155.075 68.2828 154.775 68.2187 154.439 68.2187C153.87 68.2187 153.426 68.4308 153.106 68.855C152.786 69.2712 152.626 69.8554 152.626 70.6077H152.182C152.182 69.9674 152.27 69.4192 152.446 68.963C152.63 68.5069 152.898 68.1587 153.25 67.9186C153.61 67.6705 154.046 67.5465 154.559 67.5465C155.279 67.5465 155.855 67.7706 156.287 68.2187C156.727 68.6669 156.944 69.3472 156.936 70.2595L156.215 70.6197Z" fill="white"/>
<path d="M158.617 76.0939V67.6905H159.289L159.337 68.795V76.0939H158.617ZM161.45 73.837C160.946 73.837 160.498 73.7049 160.106 73.4408C159.714 73.1687 159.406 72.7966 159.181 72.3244C158.965 71.8442 158.857 71.3 158.857 70.6917C158.857 70.0755 158.965 69.5313 159.181 69.0591C159.406 68.5869 159.714 68.2187 160.106 67.9546C160.498 67.6825 160.946 67.5465 161.45 67.5465C161.979 67.5465 162.447 67.6825 162.855 67.9546C163.263 68.2187 163.583 68.5869 163.815 69.0591C164.047 69.5313 164.163 70.0755 164.163 70.6917C164.163 71.3 164.047 71.8442 163.815 72.3244C163.583 72.7966 163.263 73.1687 162.855 73.4408C162.447 73.7049 161.979 73.837 161.45 73.837ZM161.306 73.1887C161.722 73.1887 162.091 73.0847 162.411 72.8766C162.731 72.6605 162.983 72.3644 163.167 71.9882C163.351 71.6121 163.443 71.1799 163.443 70.6917C163.443 70.2035 163.351 69.7714 163.167 69.3952C162.991 69.0191 162.743 68.7269 162.423 68.5189C162.103 68.3028 161.734 68.1947 161.318 68.1947C160.934 68.1947 160.59 68.3028 160.286 68.5189C159.99 68.7269 159.758 69.0191 159.59 69.3952C159.422 69.7714 159.337 70.2035 159.337 70.6917C159.337 71.1799 159.422 71.6121 159.59 71.9882C159.758 72.3644 159.99 72.6605 160.286 72.8766C160.582 73.0847 160.922 73.1887 161.306 73.1887Z" fill="white"/>
<path d="M165.603 73.6929L165.627 65.2896H166.347L166.323 73.6929H165.603Z" fill="white"/>
<path d="M171.94 73.6929L171.82 70.4756C171.804 69.9634 171.736 69.5433 171.616 69.2151C171.504 68.879 171.328 68.6269 171.088 68.4588C170.856 68.2908 170.544 68.2067 170.152 68.2067C169.768 68.2067 169.435 68.2828 169.155 68.4348C168.883 68.5869 168.663 68.815 168.495 69.1191L167.847 68.831C168.023 68.5429 168.223 68.3028 168.447 68.1107C168.679 67.9186 168.935 67.7786 169.215 67.6905C169.503 67.5945 169.816 67.5465 170.152 67.5465C170.688 67.5465 171.132 67.6545 171.484 67.8706C171.836 68.0867 172.1 68.4108 172.277 68.843C172.453 69.2752 172.541 69.8194 172.541 70.4756V73.6929H171.94ZM170.032 73.837C169.327 73.837 168.775 73.6769 168.375 73.3568C167.983 73.0286 167.787 72.5765 167.787 72.0002C167.787 71.408 167.983 70.9478 168.375 70.6197C168.775 70.2916 169.327 70.1275 170.032 70.1275H172.289V70.7878H170.128C169.551 70.7878 169.135 70.8958 168.879 71.1119C168.631 71.32 168.507 71.6161 168.507 72.0002C168.507 72.3684 168.635 72.6565 168.891 72.8646C169.155 73.0727 169.519 73.1767 169.984 73.1767C170.376 73.1767 170.708 73.0927 170.98 72.9246C171.26 72.7485 171.472 72.5084 171.616 72.2043C171.768 71.8922 171.844 71.5321 171.844 71.1239H172.493C172.493 71.9402 172.277 72.5965 171.844 73.0927C171.412 73.5889 170.808 73.837 170.032 73.837Z" fill="white"/>
<path d="M176.454 73.837C175.902 73.837 175.47 73.6929 175.157 73.4048C174.845 73.1087 174.689 72.6925 174.689 72.1563V65.8178H175.41V72.1563C175.41 72.4764 175.502 72.7285 175.686 72.9126C175.87 73.0887 176.126 73.1767 176.454 73.1767C176.55 73.1767 176.642 73.1647 176.73 73.1407C176.826 73.1087 176.962 73.0327 177.138 72.9126L177.438 73.5368C177.222 73.6649 177.042 73.7449 176.898 73.7769C176.754 73.817 176.606 73.837 176.454 73.837ZM173.621 68.3508V67.6905H177.318V68.3508H173.621Z" fill="white"/>
<path d="M181.279 73.837C180.703 73.837 180.191 73.7049 179.743 73.4408C179.302 73.1687 178.954 72.7966 178.698 72.3244C178.45 71.8522 178.326 71.308 178.326 70.6917C178.326 70.0755 178.45 69.5313 178.698 69.0591C178.946 68.5869 179.286 68.2187 179.719 67.9546C180.159 67.6825 180.659 67.5465 181.219 67.5465C181.787 67.5465 182.268 67.6865 182.66 67.9666C183.06 68.2388 183.364 68.6189 183.572 69.1071C183.78 69.5873 183.884 70.1435 183.884 70.7758H183.164C183.164 70.2716 183.092 69.8274 182.948 69.4432C182.804 69.0591 182.588 68.759 182.3 68.5429C182.012 68.3188 181.651 68.2067 181.219 68.2067C180.795 68.2067 180.419 68.3148 180.091 68.5309C179.763 68.739 179.507 69.0311 179.322 69.4072C179.138 69.7754 179.046 70.2035 179.046 70.6917C179.046 71.1799 179.142 71.6121 179.335 71.9882C179.527 72.3564 179.791 72.6485 180.127 72.8646C180.463 73.0727 180.847 73.1767 181.279 73.1767C181.743 73.1767 182.136 73.0647 182.456 72.8406C182.784 72.6085 183.04 72.3124 183.224 71.9522L183.824 72.3244C183.672 72.6205 183.472 72.8846 183.224 73.1167C182.984 73.3408 182.7 73.5168 182.372 73.6449C182.044 73.7729 181.679 73.837 181.279 73.837ZM178.818 70.7758V70.1155H183.368V70.7758H178.818Z" fill="white"/>
<path fill-rule="evenodd" clip-rule="evenodd" d="M55.4201 46.6306C52.0459 46.6306 49.0516 45.9356 46.4365 44.5455C43.864 43.1134 41.8395 41.1548 40.3633 38.6696C38.8872 36.1843 38.1491 33.32 38.1491 30.0767C38.1491 26.8333 38.8662 23.969 40.3001 21.4838C41.7763 18.9986 43.8007 17.061 46.3733 15.6709C48.9883 14.2389 51.9617 13.5228 55.2936 13.5228C58.6675 13.5228 61.6408 14.2389 64.2136 15.6709C66.8284 17.061 68.8529 18.9986 70.2868 21.4838C71.763 23.969 72.5011 26.8333 72.5011 30.0767C72.5011 33.32 71.763 36.1843 70.2868 38.6696C68.8529 41.1548 66.8497 43.1134 64.2769 44.5455C61.7041 45.9356 58.752 46.6306 55.4201 46.6306ZM60.3844 27.4138C60.4182 27.4728 60.4508 27.5323 60.4824 27.5925C60.6661 27.0672 60.6445 26.6081 60.4176 26.2151C60.1522 25.7555 59.668 25.4938 58.9651 25.43C58.9005 25.4232 58.8907 25.3131 58.9548 25.3021C59.6072 25.1901 60.1921 25.1631 60.7094 25.2213C61.6107 25.31 62.2335 25.6524 62.5777 26.2486C62.9219 26.8448 62.907 27.5553 62.5332 28.3803C62.1776 29.1947 61.5202 30.0542 60.561 30.959C59.5973 31.8561 58.396 32.72 56.9568 33.5509C55.4995 34.3923 54.1324 35.0113 52.8554 35.4079C51.5923 35.7861 50.51 35.9309 49.6087 35.8422C48.7074 35.7535 48.0846 35.4111 47.7404 34.8149C47.3962 34.2187 47.4019 33.5134 47.7575 32.699C47.9757 32.2175 48.2944 31.7238 48.7135 31.2178C48.7545 31.1683 48.8433 31.2311 48.8163 31.2894C48.5344 31.9218 48.526 32.4678 48.7914 32.9275C49.0169 33.318 49.4003 33.5656 49.9417 33.6704L49.9272 33.6452C49.4114 32.7441 49.1534 31.7055 49.1534 30.5295C49.1534 29.3535 49.404 28.3149 49.9051 27.4138C50.421 26.5126 51.1285 25.8101 52.0275 25.306C52.9414 24.7868 53.9804 24.5271 55.1448 24.5271C56.3239 24.5271 57.3629 24.7868 58.262 25.306C59.1758 25.8101 59.8833 26.5126 60.3844 27.4138ZM53.4672 36.3299C54.0057 36.4646 54.5796 36.5319 55.189 36.5319C56.3534 36.5319 57.385 36.2799 58.2841 35.7758C59.1832 35.2566 59.8833 34.5464 60.3844 33.6452C60.8105 32.9009 61.0606 32.0627 61.1348 31.1308C60.9373 31.3725 60.7248 31.6065 60.5002 31.822C59.6122 32.663 58.5054 33.4728 57.1794 34.2517C56.901 34.4152 56.4839 34.6028 56.0252 34.8092C55.0482 35.2489 53.8823 35.7734 53.4672 36.3299Z" fill="white"/>
<path d="M118.966 15.1866H108.211V46.778H119.598V29.9714C119.598 28.2444 119.999 26.9807 120.8 26.1804C121.602 25.3801 122.804 25.0221 124.406 25.1063C125.208 25.1485 125.861 25.3801 126.368 25.8013C126.916 26.2225 127.316 26.8333 127.569 27.6336C127.865 28.3918 128.012 29.3817 128.012 30.6033V46.778H139.4V29.9714C139.4 28.2444 139.8 26.9807 140.602 26.1804C141.403 25.3801 142.605 25.0221 144.208 25.1063C145.009 25.1485 145.663 25.3801 146.169 25.8013C146.717 26.2225 147.118 26.8333 147.371 27.6336C147.666 28.3918 147.814 29.3817 147.814 30.6033V46.778H159.201V28.7077C159.201 23.8215 158.273 20.2201 156.418 17.9034C154.562 15.5867 151.694 14.4284 147.814 14.4284C145.621 14.4284 143.659 15.0391 141.93 16.2607C140.403 17.3021 139.156 18.7868 138.188 20.7149C137.772 19.6289 137.248 18.6918 136.616 17.9034C134.76 15.5867 131.892 14.4284 128.012 14.4284C125.819 14.4284 123.858 15.0391 122.129 16.2607C121.342 16.797 120.35 17.9061 119.41 19.2719L118.966 15.1866Z" fill="white"/>
<path d="M169.525 12.6366C167.838 12.6366 166.362 12.0048 165.096 10.7411C163.831 9.47738 163.199 8.00317 163.199 6.3183C163.199 4.5913 163.831 3.11708 165.096 1.89553C166.362 0.631842 167.838 0 169.525 0C171.254 0 172.73 0.631842 173.953 1.89553C175.218 3.11708 175.851 4.5913 175.851 6.3183C175.851 8.00317 175.218 9.47738 173.953 10.7411C172.73 12.0048 171.254 12.6366 169.525 12.6366Z" fill="white"/>
<path d="M163.831 46.778V16.65C163.831 15.8864 164.52 15.3077 165.272 15.4399L-nan -nanL165.272 15.4399C168.086 15.9342 170.964 15.9342 173.777 15.4399L-nan -nanL173.777 15.4399C174.529 15.3077 175.218 15.8864 175.218 16.65V46.778H163.831Z" fill="white"/>
<path d="M89.5906 47.5362C87.4819 47.5362 85.5206 47.2413 83.7072 46.6516C81.8935 46.062 80.333 45.2406 79.0256 44.1875C77.7605 43.0923 76.8746 41.7866 76.3686 40.2702L85.4151 36.7319C85.8792 37.8692 86.533 38.6064 87.3764 38.9433C88.22 39.2383 88.958 39.3857 89.5906 39.3857C90.2654 39.3857 90.8138 39.2383 91.2356 38.9433C91.6571 38.6485 91.8681 38.2272 91.8681 37.6797C91.8681 37.0899 91.5728 36.6056 90.9823 36.2264C90.392 35.8053 89.4851 35.4472 88.262 35.1524L85.6682 34.5206C82.8426 33.8045 80.7126 32.5619 79.2787 30.7928C77.8448 29.0236 77.1277 26.9596 77.1277 24.6009C77.1277 21.3574 78.3086 18.8512 80.6706 17.082C83.0746 15.3129 86.322 14.4284 90.413 14.4284C92.9015 14.4284 94.989 14.7443 96.6762 15.3762C98.4054 15.9659 99.8181 16.8082 100.915 17.9034C102.011 18.9986 102.855 20.2622 103.445 21.6944L94.6517 25.0431C94.3564 24.2007 93.8504 23.5899 93.1333 23.2108C92.4585 22.8317 91.6151 22.6422 90.6027 22.6422C89.8859 22.6422 89.3166 22.8106 88.8948 23.1477C88.5152 23.4846 88.3255 23.8848 88.3255 24.3481C88.3255 24.8535 88.6205 25.2959 89.2111 25.6749C89.8436 26.012 90.7925 26.3489 92.0579 26.6858L94.6517 27.3176C96.5917 27.7811 98.2789 28.4971 99.7128 29.466C101.147 30.3926 102.264 31.5509 103.066 32.941C103.867 34.331 104.268 35.9317 104.268 37.7429C104.268 39.8068 103.656 41.576 102.433 43.0502C101.21 44.4824 99.5018 45.5986 97.3088 46.3989C95.1155 47.1572 92.543 47.5362 89.5906 47.5362Z" fill="white"/>
<path fill-rule="evenodd" clip-rule="evenodd" d="M21.3472 26.6902L29.8258 19.8014C28.6955 18.5448 27.3562 17.4895 25.8077 16.6353C23.2602 15.1641 20.3162 14.4284 16.9755 14.4284C13.6765 14.4284 10.7324 15.1641 8.14316 16.6353C5.59596 18.0634 3.59143 20.054 2.1298 22.6072C0.710014 25.1604 0 28.1031 0 31.4351C0 31.512 0.000388979 31.5887 0.00116694 31.6651C0.000388804 31.7392 0 31.8135 0 31.8879C0 35.1313 0.717081 37.9956 2.151 40.4808C3.53778 42.8156 5.40848 44.6669 7.76289 46.0351C7.90865 46.1252 8.05629 46.2134 8.20579 46.2998C10.7951 47.7279 13.7599 48.4419 17.1008 48.4419C17.1081 48.4419 17.1153 48.4419 17.1226 48.4418C17.1299 48.4419 17.1372 48.4419 17.1445 48.4419C20.5184 48.4419 23.4917 47.7257 26.0645 46.2937C28.6793 44.9036 30.7038 42.9661 32.1377 40.4808C33.349 38.4416 34.0633 36.1471 34.2807 33.5975C34.2925 33.4591 34.1826 33.3411 34.0437 33.3411C33.9249 33.3411 33.8243 33.4283 33.8056 33.5456C33.4941 35.4969 32.8326 37.278 31.821 38.8892C31.1391 40.0072 30.3224 41.0069 29.3708 41.8883L21.3412 35.3643C21.6992 35.0013 22.0047 34.5817 22.2578 34.1055C22.7532 33.2152 23.001 32.1863 23.001 31.0188C23.001 29.8658 22.7532 28.8369 22.2578 27.932C22.0061 27.4661 21.7026 27.0522 21.3472 26.6902ZM12.9514 28.4612C12.5489 29.2169 12.3477 30.0821 12.3477 31.0571C12.3477 32.0199 12.5489 32.873 12.9514 33.6164C13.366 34.3599 13.9331 34.9387 14.6527 35.3531C15.3723 35.7796 16.2017 35.9929 17.1408 35.9929C18.0799 35.9929 18.9092 35.7796 19.6288 35.3531C20.3484 34.9387 20.9094 34.3537 21.3119 33.5981C21.7265 32.8547 21.9339 31.9955 21.9339 31.0206C21.9339 30.0578 21.7265 29.1986 21.3119 28.443C20.9094 27.6996 20.3484 27.1146 19.6288 26.688C18.9092 26.2737 18.0799 26.0665 17.1408 26.0665C16.2017 26.0665 15.3723 26.2798 14.6527 26.7063C13.9331 27.1329 13.366 27.7179 12.9514 28.4612Z" fill="white"/>
<path fill-rule="evenodd" clip-rule="evenodd" d="M201.066 26.6902L209.544 19.8014C208.414 18.5448 207.075 17.4895 205.526 16.6353C202.979 15.1641 200.035 14.4284 196.694 14.4284C193.395 14.4284 190.451 15.1641 187.862 16.6353C185.315 18.0634 183.31 20.054 181.848 22.6072C180.429 25.1604 179.719 28.1031 179.719 31.4351C179.719 31.512 179.719 31.5887 179.72 31.6651C179.719 31.7392 179.719 31.8135 179.719 31.8879C179.719 35.1313 180.436 37.9956 181.87 40.4808C183.256 42.8156 185.127 44.6669 187.481 46.0351C187.627 46.1252 187.775 46.2134 187.924 46.2998C190.514 47.7279 193.478 48.4419 196.819 48.4419C196.827 48.4419 196.834 48.4419 196.841 48.4418C196.848 48.4419 196.856 48.4419 196.863 48.4419C200.237 48.4419 203.21 47.7257 205.783 46.2937C208.398 44.9036 210.422 42.9661 211.856 40.4808C213.068 38.4416 213.782 36.1471 213.999 33.5975C214.011 33.4591 213.901 33.3411 213.762 33.3411C213.644 33.3411 213.543 33.4283 213.524 33.5456C213.213 35.4969 212.551 37.278 211.54 38.8892C210.858 40.0072 210.041 41.0069 209.089 41.8883L201.06 35.3643C201.418 35.0013 201.723 34.5817 201.976 34.1055C202.472 33.2152 202.72 32.1863 202.72 31.0188C202.72 29.8658 202.472 28.8369 201.976 27.932C201.725 27.4661 201.421 27.0522 201.066 26.6902ZM192.67 28.4612C192.267 29.2169 192.066 30.0821 192.066 31.0571C192.066 32.0199 192.267 32.873 192.67 33.6164C193.085 34.3599 193.652 34.9387 194.371 35.3531C195.091 35.7796 195.92 35.9929 196.859 35.9929C197.798 35.9929 198.628 35.7796 199.347 35.3531C200.067 34.9387 200.628 34.3537 201.03 33.5981C201.445 32.8547 201.652 31.9955 201.652 31.0206C201.652 30.0578 201.445 29.1986 201.03 28.443C200.628 27.6996 200.067 27.1146 199.347 26.688C198.628 26.2737 197.798 26.0665 196.859 26.0665C195.92 26.0665 195.091 26.2798 194.371 26.7063C193.652 27.1329 193.085 27.7179 192.67 28.4612Z" fill="white"/>
</svg>
