<svg width="214" height="77" viewBox="0 0 214 77" fill="none" xmlns="http://www.w3.org/2000/svg">
<path d="M32.8015 73.6929V65.2895H33.5698V73.6929H32.8015ZM33.5698 69.8874V69.1911H37.2313V69.8874H33.5698ZM33.5698 65.9858V65.2895H37.6394V65.9858H33.5698Z" fill="white"/>
<path d="M39.1556 70.4036C39.1556 69.7553 39.2756 69.2311 39.5157 68.8309C39.7638 68.4308 40.08 68.1387 40.4641 67.9546C40.8563 67.7625 41.2684 67.6665 41.7006 67.6665V68.3267C41.3485 68.3267 41.0083 68.3908 40.6802 68.5188C40.3601 68.6389 40.096 68.847 39.8879 69.1431C39.6798 69.4312 39.5758 69.8273 39.5758 70.3315L39.1556 70.4036ZM38.8555 73.6929V67.6905H39.5758V73.6929H38.8555Z" fill="white"/>
<path d="M45.3172 73.8369C44.741 73.8369 44.2288 73.7049 43.7806 73.4408C43.3404 73.1687 42.9923 72.7965 42.7362 72.3243C42.4881 71.8521 42.3641 71.3079 42.3641 70.6917C42.3641 70.0754 42.4881 69.5312 42.7362 69.059C42.9843 68.5868 43.3244 68.2187 43.7566 67.9546C44.1968 67.6825 44.697 67.5464 45.2572 67.5464C45.8254 67.5464 46.3056 67.6865 46.6978 67.9666C47.0979 68.2387 47.4021 68.6189 47.6101 69.1071C47.8182 69.5872 47.9223 70.1435 47.9223 70.7757H47.202C47.202 70.2715 47.1299 69.8273 46.9859 69.4432C46.8418 69.059 46.6257 68.7589 46.3376 68.5428C46.0495 68.3187 45.6894 68.2067 45.2572 68.2067C44.833 68.2067 44.4569 68.3147 44.1288 68.5308C43.8006 68.7389 43.5445 69.031 43.3605 69.4072C43.1764 69.7753 43.0843 70.2035 43.0843 70.6917C43.0843 71.1799 43.1804 71.612 43.3725 71.9882C43.5645 72.3563 43.8286 72.6484 44.1648 72.8645C44.5009 73.0726 44.8851 73.1767 45.3172 73.1767C45.7814 73.1767 46.1736 73.0646 46.4937 72.8405C46.8218 72.6084 47.0779 72.3123 47.262 71.9522L47.8622 72.3243C47.7102 72.6204 47.5101 72.8845 47.262 73.1166C47.0219 73.3407 46.7378 73.5168 46.4097 73.6448C46.0815 73.7729 45.7174 73.8369 45.3172 73.8369ZM42.8563 70.7757V70.1155H47.4061V70.7757H42.8563Z" fill="white"/>
<path d="M51.8354 73.8369C51.2592 73.8369 50.747 73.7049 50.2988 73.4408C49.8586 73.1687 49.5105 72.7965 49.2544 72.3243C49.0063 71.8521 48.8823 71.3079 48.8823 70.6917C48.8823 70.0754 49.0063 69.5312 49.2544 69.059C49.5025 68.5868 49.8426 68.2187 50.2748 67.9546C50.715 67.6825 51.2152 67.5464 51.7754 67.5464C52.3436 67.5464 52.8238 67.6865 53.216 67.9666C53.6161 68.2387 53.9203 68.6189 54.1283 69.1071C54.3364 69.5872 54.4405 70.1435 54.4405 70.7757H53.7202C53.7202 70.2715 53.6481 69.8273 53.5041 69.4432C53.36 69.059 53.1439 68.7589 52.8558 68.5428C52.5677 68.3187 52.2076 68.2067 51.7754 68.2067C51.3512 68.2067 50.9751 68.3147 50.647 68.5308C50.3188 68.7389 50.0627 69.031 49.8787 69.4072C49.6946 69.7753 49.6025 70.2035 49.6025 70.6917C49.6025 71.1799 49.6986 71.612 49.8907 71.9882C50.0827 72.3563 50.3468 72.6484 50.683 72.8645C51.0191 73.0726 51.4033 73.1767 51.8354 73.1767C52.2996 73.1767 52.6918 73.0646 53.0119 72.8405C53.34 72.6084 53.5961 72.3123 53.7802 71.9522L54.3804 72.3243C54.2284 72.6204 54.0283 72.8845 53.7802 73.1166C53.5401 73.3407 53.256 73.5168 52.9279 73.6448C52.5997 73.7729 52.2356 73.8369 51.8354 73.8369ZM49.3745 70.7757V70.1155H53.9243V70.7757H49.3745Z" fill="white"/>
<path d="M59.0619 73.6929V65.2895H59.8302V73.6929H59.0619ZM59.8302 69.8874V69.1911H63.4917V69.8874H59.8302ZM59.8302 65.9858V65.2895H63.8998V65.9858H59.8302Z" fill="white"/>
<path d="M65.2331 73.6929L65.2571 65.2895H65.9774L65.9534 73.6929H65.2331Z" fill="white"/>
<path d="M71.9547 73.6929L71.9067 72.5884V67.6905H72.627V73.6929H71.9547ZM67.597 71.1238V67.6905H68.3173V70.7637L67.597 71.1238ZM68.3173 70.7637C68.3173 71.428 68.3933 71.9322 68.5454 72.2763C68.7054 72.6204 68.9215 72.8565 69.1936 72.9846C69.4657 73.1046 69.7659 73.1647 70.094 73.1647C70.6622 73.1647 71.1064 72.9566 71.4265 72.5404C71.7466 72.1162 71.9067 71.528 71.9067 70.7757H72.3509C72.3509 71.416 72.2588 71.9642 72.0748 72.4204C71.8987 72.8765 71.6346 73.2287 71.2825 73.4768C70.9303 73.7169 70.4941 73.8369 69.9739 73.8369C69.2537 73.8369 68.6734 73.6128 68.2333 73.1647C67.8011 72.7165 67.589 72.0362 67.597 71.1238L68.3173 70.7637Z" fill="white"/>
<path d="M76.7171 73.8369C76.1649 73.8369 75.7327 73.6929 75.4206 73.4047C75.1085 73.1086 74.9524 72.6925 74.9524 72.1563V65.8178H75.6727V72.1563C75.6727 72.4764 75.7648 72.7285 75.9488 72.9126C76.1329 73.0886 76.389 73.1767 76.7171 73.1767C76.8132 73.1767 76.9052 73.1647 76.9932 73.1406C77.0893 73.1086 77.2253 73.0326 77.4014 72.9126L77.7015 73.5368C77.4854 73.6649 77.3054 73.7449 77.1613 73.7769C77.0173 73.8169 76.8692 73.8369 76.7171 73.8369ZM73.884 68.3507V67.6905H77.5815V68.3507H73.884Z" fill="white"/>
<path d="M81.2424 73.8369C80.6901 73.8369 80.258 73.6929 79.9459 73.4047C79.6337 73.1086 79.4777 72.6925 79.4777 72.1563V65.8178H80.198V72.1563C80.198 72.4764 80.29 72.7285 80.4741 72.9126C80.6581 73.0886 80.9142 73.1767 81.2424 73.1767C81.3384 73.1767 81.4304 73.1647 81.5185 73.1406C81.6145 73.1086 81.7506 73.0326 81.9266 72.9126L82.2268 73.5368C82.0107 73.6649 81.8306 73.7449 81.6865 73.7769C81.5425 73.8169 81.3944 73.8369 81.2424 73.8369ZM78.4092 68.3507V67.6905H82.1067V68.3507H78.4092Z" fill="white"/>
<path d="M86.0677 73.8369C85.4915 73.8369 84.9793 73.7049 84.5311 73.4408C84.0909 73.1687 83.7428 72.7965 83.4867 72.3243C83.2386 71.8521 83.1145 71.3079 83.1145 70.6917C83.1145 70.0754 83.2386 69.5312 83.4867 69.059C83.7348 68.5868 84.0749 68.2187 84.5071 67.9546C84.9473 67.6825 85.4475 67.5464 86.0077 67.5464C86.5759 67.5464 87.0561 67.6865 87.4483 67.9666C87.8484 68.2387 88.1525 68.6189 88.3606 69.1071C88.5687 69.5872 88.6727 70.1435 88.6727 70.7757H87.9525C87.9525 70.2715 87.8804 69.8273 87.7364 69.4432C87.5923 69.059 87.3762 68.7589 87.0881 68.5428C86.8 68.3187 86.4399 68.2067 86.0077 68.2067C85.5835 68.2067 85.2074 68.3147 84.8792 68.5308C84.5511 68.7389 84.295 69.031 84.1109 69.4072C83.9269 69.7753 83.8348 70.2035 83.8348 70.6917C83.8348 71.1799 83.9309 71.612 84.1229 71.9882C84.315 72.3563 84.5791 72.6484 84.9153 72.8645C85.2514 73.0726 85.6355 73.1767 86.0677 73.1767C86.5319 73.1767 86.924 73.0646 87.2442 72.8405C87.5723 72.6084 87.8284 72.3123 88.0125 71.9522L88.6127 72.3243C88.4607 72.6204 88.2606 72.8845 88.0125 73.1166C87.7724 73.3407 87.4883 73.5168 87.1601 73.6448C86.832 73.7729 86.4679 73.8369 86.0677 73.8369ZM83.6067 70.7757V70.1155H88.1565V70.7757H83.6067Z" fill="white"/>
<path d="M90.293 70.4036C90.293 69.7553 90.4131 69.2311 90.6531 68.8309C90.9012 68.4308 91.2174 68.1387 91.6015 67.9546C91.9937 67.7625 92.4058 67.6665 92.838 67.6665V68.3267C92.4859 68.3267 92.1457 68.3908 91.8176 68.5188C91.4975 68.6389 91.2334 68.847 91.0253 69.1431C90.8172 69.4312 90.7132 69.8273 90.7132 70.3315L90.293 70.4036ZM89.9929 73.6929V67.6905H90.7132V73.6929H89.9929Z" fill="white"/>
<path d="M100.656 73.6929L100.536 70.4756C100.52 69.9634 100.452 69.5432 100.332 69.2151C100.22 68.879 100.044 68.6269 99.804 68.4588C99.5719 68.2907 99.2597 68.2067 98.8676 68.2067C98.4834 68.2067 98.1513 68.2827 97.8712 68.4348C97.5991 68.5869 97.379 68.8149 97.2109 69.1191L96.5627 68.8309C96.7387 68.5428 96.9388 68.3027 97.1629 68.1107C97.395 67.9186 97.6511 67.7785 97.9312 67.6905C98.2193 67.5945 98.5315 67.5464 98.8676 67.5464C99.4038 67.5464 99.848 67.6545 100.2 67.8706C100.552 68.0867 100.816 68.4108 100.992 68.8429C101.168 69.2751 101.257 69.8193 101.257 70.4756V73.6929H100.656ZM98.7475 73.8369C98.0433 73.8369 97.491 73.6769 97.0909 73.3567C96.6987 73.0286 96.5026 72.5764 96.5026 72.0002C96.5026 71.408 96.6987 70.9478 97.0909 70.6197C97.491 70.2915 98.0433 70.1275 98.7475 70.1275H101.004V70.7877H98.8436C98.2673 70.7877 97.8512 70.8958 97.5951 71.1118C97.347 71.3199 97.2229 71.616 97.2229 72.0002C97.2229 72.3683 97.351 72.6565 97.6071 72.8645C97.8712 73.0726 98.2353 73.1767 98.6995 73.1767C99.0917 73.1767 99.4238 73.0926 99.6959 72.9246C99.976 72.7485 100.188 72.5084 100.332 72.2043C100.484 71.8922 100.56 71.532 100.56 71.1238H101.209C101.209 71.9402 100.992 72.5964 100.56 73.0926C100.128 73.5888 99.5238 73.8369 98.7475 73.8369Z" fill="white"/>
<path d="M102.937 76.0938V67.6905H103.609L103.657 68.7949V76.0938H102.937ZM105.77 73.8369C105.266 73.8369 104.818 73.7049 104.425 73.4408C104.033 73.1687 103.725 72.7965 103.501 72.3243C103.285 71.8441 103.177 71.2999 103.177 70.6917C103.177 70.0754 103.285 69.5312 103.501 69.059C103.725 68.5868 104.033 68.2187 104.425 67.9546C104.818 67.6825 105.266 67.5464 105.77 67.5464C106.298 67.5464 106.766 67.6825 107.175 67.9546C107.583 68.2187 107.903 68.5868 108.135 69.059C108.367 69.5312 108.483 70.0754 108.483 70.6917C108.483 71.2999 108.367 71.8441 108.135 72.3243C107.903 72.7965 107.583 73.1687 107.175 73.4408C106.766 73.7049 106.298 73.8369 105.77 73.8369ZM105.626 73.1887C106.042 73.1887 106.41 73.0846 106.73 72.8765C107.051 72.6605 107.303 72.3643 107.487 71.9882C107.671 71.612 107.763 71.1799 107.763 70.6917C107.763 70.2035 107.671 69.7713 107.487 69.3952C107.311 69.019 107.063 68.7269 106.742 68.5188C106.422 68.3027 106.054 68.1947 105.638 68.1947C105.254 68.1947 104.91 68.3027 104.606 68.5188C104.309 68.7269 104.077 69.019 103.909 69.3952C103.741 69.7713 103.657 70.2035 103.657 70.6917C103.657 71.1799 103.741 71.612 103.909 71.9882C104.077 72.3643 104.309 72.6605 104.606 72.8765C104.902 73.0846 105.242 73.1887 105.626 73.1887Z" fill="white"/>
<path d="M109.983 76.0938V67.6905H110.655L110.703 68.7949V76.0938H109.983ZM112.816 73.8369C112.312 73.8369 111.863 73.7049 111.471 73.4408C111.079 73.1687 110.771 72.7965 110.547 72.3243C110.331 71.8441 110.223 71.2999 110.223 70.6917C110.223 70.0754 110.331 69.5312 110.547 69.059C110.771 68.5868 111.079 68.2187 111.471 67.9546C111.863 67.6825 112.312 67.5464 112.816 67.5464C113.344 67.5464 113.812 67.6825 114.22 67.9546C114.628 68.2187 114.949 68.5868 115.181 69.059C115.413 69.5312 115.529 70.0754 115.529 70.6917C115.529 71.2999 115.413 71.8441 115.181 72.3243C114.949 72.7965 114.628 73.1687 114.22 73.4408C113.812 73.7049 113.344 73.8369 112.816 73.8369ZM112.672 73.1887C113.088 73.1887 113.456 73.0846 113.776 72.8765C114.096 72.6605 114.348 72.3643 114.532 71.9882C114.717 71.612 114.809 71.1799 114.809 70.6917C114.809 70.2035 114.717 69.7713 114.532 69.3952C114.356 69.019 114.108 68.7269 113.788 68.5188C113.468 68.3027 113.1 68.1947 112.684 68.1947C112.3 68.1947 111.955 68.3027 111.651 68.5188C111.355 68.7269 111.123 69.019 110.955 69.3952C110.787 69.7713 110.703 70.2035 110.703 70.6917C110.703 71.1799 110.787 71.612 110.955 71.9882C111.123 72.3643 111.355 72.6605 111.651 72.8765C111.947 73.0846 112.288 73.1887 112.672 73.1887Z" fill="white"/>
<path d="M123.295 73.8849C122.687 73.8849 122.142 73.7529 121.662 73.4888C121.19 73.2167 120.818 72.8445 120.546 72.3723C120.282 71.9002 120.15 71.3599 120.15 70.7517H120.918C120.918 71.2239 121.018 71.6441 121.218 72.0122C121.426 72.3803 121.71 72.6685 122.07 72.8765C122.439 73.0846 122.855 73.1887 123.319 73.1887C123.791 73.1887 124.207 73.0846 124.567 72.8765C124.936 72.6685 125.22 72.3803 125.42 72.0122C125.628 71.6441 125.732 71.2239 125.732 70.7517H126.5C126.5 71.3599 126.364 71.9002 126.092 72.3723C125.82 72.8445 125.44 73.2167 124.952 73.4888C124.471 73.7529 123.919 73.8849 123.295 73.8849ZM120.15 70.7517V65.2895H120.918V70.7517H120.15ZM125.732 70.7517V65.2895H126.5V70.7517H125.732Z" fill="white"/>
<path d="M128.781 73.6929V65.2895H129.549V73.6929H128.781Z" fill="white"/>
<path d="M136.94 73.8369C136.388 73.8369 135.956 73.6929 135.644 73.4047C135.332 73.1086 135.175 72.6925 135.175 72.1563V65.8178H135.896V72.1563C135.896 72.4764 135.988 72.7285 136.172 72.9126C136.356 73.0886 136.612 73.1767 136.94 73.1767C137.036 73.1767 137.128 73.1647 137.216 73.1406C137.312 73.1086 137.448 73.0326 137.624 72.9126L137.925 73.5368C137.708 73.6649 137.528 73.7449 137.384 73.7769C137.24 73.8169 137.092 73.8369 136.94 73.8369ZM134.107 68.3507V67.6905H137.805V68.3507H134.107Z" fill="white"/>
<path d="M141.766 73.8369C141.189 73.8369 140.677 73.7049 140.229 73.4408C139.789 73.1687 139.441 72.7965 139.184 72.3243C138.936 71.8521 138.812 71.3079 138.812 70.6917C138.812 70.0754 138.936 69.5312 139.184 69.059C139.433 68.5868 139.773 68.2187 140.205 67.9546C140.645 67.6825 141.145 67.5464 141.705 67.5464C142.274 67.5464 142.754 67.6865 143.146 67.9666C143.546 68.2387 143.85 68.6189 144.058 69.1071C144.266 69.5872 144.371 70.1435 144.371 70.7757H143.65C143.65 70.2715 143.578 69.8273 143.434 69.4432C143.29 69.059 143.074 68.7589 142.786 68.5428C142.498 68.3187 142.138 68.2067 141.705 68.2067C141.281 68.2067 140.905 68.3147 140.577 68.5308C140.249 68.7389 139.993 69.031 139.809 69.4072C139.625 69.7753 139.533 70.2035 139.533 70.6917C139.533 71.1799 139.629 71.612 139.821 71.9882C140.013 72.3563 140.277 72.6484 140.613 72.8645C140.949 73.0726 141.333 73.1767 141.766 73.1767C142.23 73.1767 142.622 73.0646 142.942 72.8405C143.27 72.6084 143.526 72.3123 143.71 71.9522L144.311 72.3243C144.158 72.6204 143.958 72.8845 143.71 73.1166C143.47 73.3407 143.186 73.5168 142.858 73.6448C142.53 73.7729 142.166 73.8369 141.766 73.8369ZM139.305 70.7757V70.1155H143.854V70.7757H139.305Z" fill="white"/>
<path d="M145.691 73.6929V67.6905H146.363L146.411 68.7949V73.6929H145.691ZM150 73.6929V70.6197L150.721 70.2595V73.6929H150ZM154.31 73.6929V70.6197L155.03 70.2595V73.6929H154.31ZM150 70.6197C150 69.9554 149.92 69.4512 149.76 69.1071C149.608 68.7629 149.396 68.5308 149.124 68.4108C148.86 68.2827 148.56 68.2187 148.224 68.2187C147.655 68.2187 147.211 68.4308 146.891 68.855C146.571 69.2711 146.411 69.8553 146.411 70.6076H145.967C145.967 69.9674 146.055 69.4192 146.231 68.963C146.415 68.5068 146.683 68.1587 147.035 67.9186C147.395 67.6705 147.832 67.5464 148.344 67.5464C149.064 67.5464 149.64 67.7705 150.072 68.2187C150.513 68.6669 150.729 69.3471 150.721 70.2595L150 70.6197ZM154.31 70.6197C154.31 69.9554 154.23 69.4512 154.07 69.1071C153.918 68.7629 153.706 68.5308 153.434 68.4108C153.17 68.2827 152.87 68.2187 152.533 68.2187C151.965 68.2187 151.521 68.4308 151.201 68.855C150.881 69.2711 150.721 69.8553 150.721 70.6076H150.276C150.276 69.9674 150.365 69.4192 150.541 68.963C150.725 68.5068 150.993 68.1587 151.345 67.9186C151.705 67.6705 152.141 67.5464 152.653 67.5464C153.374 67.5464 153.95 67.7705 154.382 68.2187C154.822 68.6669 155.038 69.3471 155.03 70.2595L154.31 70.6197Z" fill="white"/>
<path d="M156.712 76.0938V67.6905H157.384L157.432 68.7949V76.0938H156.712ZM159.545 73.8369C159.041 73.8369 158.593 73.7049 158.201 73.4408C157.809 73.1687 157.5 72.7965 157.276 72.3243C157.06 71.8441 156.952 71.2999 156.952 70.6917C156.952 70.0754 157.06 69.5312 157.276 69.059C157.5 68.5868 157.809 68.2187 158.201 67.9546C158.593 67.6825 159.041 67.5464 159.545 67.5464C160.073 67.5464 160.542 67.6825 160.95 67.9546C161.358 68.2187 161.678 68.5868 161.91 69.059C162.142 69.5312 162.258 70.0754 162.258 70.6917C162.258 71.2999 162.142 71.8441 161.91 72.3243C161.678 72.7965 161.358 73.1687 160.95 73.4408C160.542 73.7049 160.073 73.8369 159.545 73.8369ZM159.401 73.1887C159.817 73.1887 160.185 73.0846 160.506 72.8765C160.826 72.6605 161.078 72.3643 161.262 71.9882C161.446 71.612 161.538 71.1799 161.538 70.6917C161.538 70.2035 161.446 69.7713 161.262 69.3952C161.086 69.019 160.838 68.7269 160.518 68.5188C160.197 68.3027 159.829 68.1947 159.413 68.1947C159.029 68.1947 158.685 68.3027 158.381 68.5188C158.085 68.7269 157.853 69.019 157.684 69.3952C157.516 69.7713 157.432 70.2035 157.432 70.6917C157.432 71.1799 157.516 71.612 157.684 71.9882C157.853 72.3643 158.085 72.6605 158.381 72.8765C158.677 73.0846 159.017 73.1887 159.401 73.1887Z" fill="white"/>
<path d="M163.698 73.6929L163.722 65.2895H164.442L164.418 73.6929H163.698Z" fill="white"/>
<path d="M170.035 73.6929L169.915 70.4756C169.899 69.9634 169.831 69.5432 169.711 69.2151C169.599 68.879 169.423 68.6269 169.183 68.4588C168.951 68.2907 168.639 68.2067 168.247 68.2067C167.862 68.2067 167.53 68.2827 167.25 68.4348C166.978 68.5869 166.758 68.8149 166.59 69.1191L165.942 68.8309C166.118 68.5428 166.318 68.3027 166.542 68.1107C166.774 67.9186 167.03 67.7785 167.31 67.6905C167.598 67.5945 167.91 67.5464 168.247 67.5464C168.783 67.5464 169.227 67.6545 169.579 67.8706C169.931 68.0867 170.195 68.4108 170.371 68.8429C170.547 69.2751 170.636 69.8193 170.636 70.4756V73.6929H170.035ZM168.127 73.8369C167.422 73.8369 166.87 73.6769 166.47 73.3567C166.078 73.0286 165.882 72.5764 165.882 72.0002C165.882 71.408 166.078 70.9478 166.47 70.6197C166.87 70.2915 167.422 70.1275 168.127 70.1275H170.383V70.7877H168.223C167.646 70.7877 167.23 70.8958 166.974 71.1118C166.726 71.3199 166.602 71.616 166.602 72.0002C166.602 72.3683 166.73 72.6565 166.986 72.8645C167.25 73.0726 167.614 73.1767 168.079 73.1767C168.471 73.1767 168.803 73.0926 169.075 72.9246C169.355 72.7485 169.567 72.5084 169.711 72.2043C169.863 71.8922 169.939 71.532 169.939 71.1238H170.587C170.587 71.9402 170.371 72.5964 169.939 73.0926C169.507 73.5888 168.903 73.8369 168.127 73.8369Z" fill="white"/>
<path d="M174.549 73.8369C173.997 73.8369 173.564 73.6929 173.252 73.4047C172.94 73.1086 172.784 72.6925 172.784 72.1563V65.8178H173.504V72.1563C173.504 72.4764 173.596 72.7285 173.78 72.9126C173.965 73.0886 174.221 73.1767 174.549 73.1767C174.645 73.1767 174.737 73.1647 174.825 73.1406C174.921 73.1086 175.057 73.0326 175.233 72.9126L175.533 73.5368C175.317 73.6649 175.137 73.7449 174.993 73.7769C174.849 73.8169 174.701 73.8369 174.549 73.8369ZM171.716 68.3507V67.6905H175.413V68.3507H171.716Z" fill="white"/>
<path d="M179.374 73.8369C178.798 73.8369 178.286 73.7049 177.838 73.4408C177.397 73.1687 177.049 72.7965 176.793 72.3243C176.545 71.8521 176.421 71.3079 176.421 70.6917C176.421 70.0754 176.545 69.5312 176.793 69.059C177.041 68.5868 177.381 68.2187 177.814 67.9546C178.254 67.6825 178.754 67.5464 179.314 67.5464C179.882 67.5464 180.363 67.6865 180.755 67.9666C181.155 68.2387 181.459 68.6189 181.667 69.1071C181.875 69.5872 181.979 70.1435 181.979 70.7757H181.259C181.259 70.2715 181.187 69.8273 181.043 69.4432C180.899 69.059 180.683 68.7589 180.395 68.5428C180.106 68.3187 179.746 68.2067 179.314 68.2067C178.89 68.2067 178.514 68.3147 178.186 68.5308C177.858 68.7389 177.601 69.031 177.417 69.4072C177.233 69.7753 177.141 70.2035 177.141 70.6917C177.141 71.1799 177.237 71.612 177.429 71.9882C177.621 72.3563 177.886 72.6484 178.222 72.8645C178.558 73.0726 178.942 73.1767 179.374 73.1767C179.838 73.1767 180.23 73.0646 180.551 72.8405C180.879 72.6084 181.135 72.3123 181.319 71.9522L181.919 72.3243C181.767 72.6204 181.567 72.8845 181.319 73.1166C181.079 73.3407 180.795 73.5168 180.467 73.6448C180.138 73.7729 179.774 73.8369 179.374 73.8369ZM176.913 70.7757V70.1155H181.463V70.7757H176.913Z" fill="white"/>
<path fill-rule="evenodd" clip-rule="evenodd" d="M55.42 46.6306C52.0459 46.6306 49.0516 45.9356 46.4365 44.5455C43.864 43.1134 41.8395 41.1548 40.3633 38.6695C38.8871 36.1843 38.1491 33.32 38.1491 30.0767C38.1491 26.8333 38.8661 23.969 40.3001 21.4838C41.7762 18.9985 43.8007 17.061 46.3733 15.6709C48.9883 14.2389 51.9616 13.5228 55.2935 13.5228C58.6674 13.5228 61.6408 14.2389 64.2136 15.6709C66.8284 17.061 68.8528 18.9985 70.2868 21.4838C71.7629 23.969 72.501 26.8333 72.501 30.0767C72.501 33.32 71.7629 36.1843 70.2868 38.6695C68.8528 41.1548 66.8496 43.1134 64.2768 44.5455C61.704 45.9356 58.7519 46.6306 55.42 46.6306ZM60.3844 27.4137C60.4181 27.4727 60.4508 27.5323 60.4824 27.5925C60.666 27.0672 60.6444 26.6081 60.4175 26.2151C60.1522 25.7554 59.668 25.4937 58.9651 25.43C58.9004 25.4232 58.8907 25.3131 58.9547 25.3021C59.6072 25.1901 60.192 25.1631 60.7093 25.2213C61.6107 25.31 62.2334 25.6524 62.5776 26.2486C62.9218 26.8448 62.907 27.5553 62.5332 28.3802C62.1776 29.1946 61.5202 30.0542 60.561 30.959C59.5972 31.8561 58.3959 32.72 56.9568 33.5509C55.4995 34.3923 54.1324 35.0112 52.8554 35.4078C51.5923 35.7861 50.51 35.9309 49.6087 35.8422C48.7073 35.7535 48.0846 35.4111 47.7404 34.8149C47.3962 34.2187 47.4019 33.5134 47.7575 32.699C47.9757 32.2175 48.2944 31.7238 48.7135 31.2177C48.7544 31.1683 48.8432 31.2311 48.8163 31.2894C48.5343 31.9218 48.526 32.4678 48.7914 32.9274C49.0169 33.318 49.4003 33.5656 49.9417 33.6704L49.9272 33.6452C49.4113 32.7441 49.1534 31.7055 49.1534 30.5295C49.1534 29.3534 49.404 28.3149 49.9051 27.4137C50.421 26.5126 51.1285 25.8101 52.0275 25.306C52.9413 24.7868 53.9804 24.5271 55.1448 24.5271C56.3238 24.5271 57.3629 24.7868 58.262 25.306C59.1758 25.8101 59.8833 26.5126 60.3844 27.4137ZM53.4672 36.3299C54.0057 36.4645 54.5796 36.5318 55.189 36.5318C56.3534 36.5318 57.385 36.2799 58.2841 35.7758C59.1832 35.2565 59.8833 34.5463 60.3844 33.6452C60.8105 32.9009 61.0606 32.0627 61.1347 31.1308C60.9372 31.3725 60.7247 31.6065 60.5002 31.822C59.6122 32.6629 58.5053 33.4728 57.1793 34.2517C56.901 34.4152 56.4839 34.6028 56.0252 34.8092C55.0481 35.2488 53.8823 35.7734 53.4672 36.3299Z" fill="white"/>
<path d="M118.966 15.1866H108.211V46.778H119.598V29.9714C119.598 28.2444 119.999 26.9807 120.8 26.1803C121.601 25.3801 122.804 25.022 124.406 25.1063C125.208 25.1484 125.861 25.3801 126.368 25.8013C126.916 26.2225 127.316 26.8333 127.569 27.6336C127.865 28.3918 128.012 29.3817 128.012 30.6032V46.778H139.4V29.9714C139.4 28.2444 139.8 26.9807 140.602 26.1803C141.403 25.3801 142.605 25.022 144.208 25.1063C145.009 25.1484 145.663 25.3801 146.169 25.8013C146.717 26.2225 147.118 26.8333 147.371 27.6336C147.666 28.3918 147.813 29.3817 147.813 30.6032V46.778H159.201V28.7077C159.201 23.8215 158.273 20.2201 156.417 17.9034C154.562 15.5867 151.694 14.4284 147.813 14.4284C145.62 14.4284 143.659 15.0391 141.93 16.2606C140.403 17.3021 139.156 18.7868 138.188 20.7149C137.771 19.6289 137.248 18.6918 136.616 17.9034C134.76 15.5867 131.892 14.4284 128.012 14.4284C125.819 14.4284 123.858 15.0391 122.129 16.2606C121.342 16.797 120.35 17.9061 119.41 19.2718L118.966 15.1866Z" fill="white"/>
<path d="M169.525 12.6366C167.838 12.6366 166.362 12.0047 165.096 10.7411C163.831 9.47738 163.198 8.00316 163.198 6.31829C163.198 4.59129 163.831 3.11708 165.096 1.89552C166.362 0.631842 167.838 0 169.525 0C171.254 0 172.73 0.631842 173.953 1.89552C175.218 3.11708 175.851 4.59129 175.851 6.31829C175.851 8.00316 175.218 9.47738 173.953 10.7411C172.73 12.0047 171.254 12.6366 169.525 12.6366Z" fill="white"/>
<path d="M163.831 46.778V16.65C163.831 15.8864 164.52 15.3077 165.272 15.4398C168.086 15.9342 170.964 15.9342 173.777 15.4398C174.529 15.3077 175.218 15.8864 175.218 16.65V46.778H163.831Z" fill="white"/>
<path d="M89.5906 47.5362C87.4818 47.5362 85.5206 47.2413 83.7071 46.6516C81.8934 46.062 80.333 45.2406 79.0256 44.1875C77.7605 43.0923 76.8746 41.7866 76.3685 40.2701L85.4151 36.7319C85.8791 37.8692 86.533 38.6064 87.3763 38.9433C88.2199 39.2382 88.958 39.3856 89.5906 39.3856C90.2654 39.3856 90.8137 39.2382 91.2355 38.9433C91.6571 38.6485 91.8681 38.2272 91.8681 37.6796C91.8681 37.0899 91.5728 36.6056 90.9822 36.2264C90.3919 35.8052 89.4851 35.4472 88.2619 35.1524L85.6681 34.5206C82.8425 33.8044 80.7125 32.5619 79.2786 30.7928C77.8447 29.0236 77.1276 26.9596 77.1276 24.6009C77.1276 21.3574 78.3085 18.8512 80.6705 17.082C83.0746 15.3129 86.3219 14.4284 90.4129 14.4284C92.9014 14.4284 94.9889 14.7443 96.6761 15.3761C98.4053 15.9659 99.818 16.8082 100.915 17.9034C102.011 18.9985 102.855 20.2622 103.445 21.6944L94.6517 25.0431C94.3564 24.2007 93.8503 23.5898 93.1332 23.2108C92.4584 22.8317 91.6151 22.6422 90.6027 22.6422C89.8859 22.6422 89.3165 22.8106 88.8947 23.1476C88.5152 23.4846 88.3254 23.8848 88.3254 24.3481C88.3254 24.8535 88.6205 25.2958 89.211 25.6749C89.8436 26.0119 90.7925 26.3489 92.0579 26.6858L94.6517 27.3176C96.5916 27.7811 98.2788 28.4971 99.7127 29.4659C101.147 30.3926 102.264 31.5509 103.066 32.9409C103.867 34.331 104.268 35.9316 104.268 37.7429C104.268 39.8068 103.656 41.576 102.433 43.0502C101.21 44.4824 99.5017 45.5985 97.3087 46.3989C95.1155 47.1571 92.5429 47.5362 89.5906 47.5362Z" fill="white"/>
<path fill-rule="evenodd" clip-rule="evenodd" d="M17.0595 14.4285C17.0878 14.4284 17.1161 14.4284 17.1445 14.4284C20.5184 14.4284 23.4917 15.1445 26.0645 16.5766C28.6793 17.9666 30.7038 19.9042 32.1377 22.3894C33.349 24.4287 34.0633 26.7231 34.2806 29.2728C34.2924 29.4112 34.1826 29.5291 34.0437 29.5291C33.9249 29.5291 33.8243 29.4419 33.8056 29.3246C33.4941 27.3734 32.8326 25.5922 31.821 23.9811C31.0276 22.6802 30.0517 21.5396 28.8932 20.5591L21.3472 26.6902C21.7026 27.0522 22.0061 27.4661 22.2578 27.932C22.7532 28.8369 23.001 29.8658 23.001 31.0188C23.001 32.1863 22.7532 33.2152 22.2578 34.1055C22.0047 34.5817 21.6992 35.0013 21.3412 35.3643L30.2443 42.598C29.0412 44.0765 27.5832 45.3104 25.8703 46.2997C23.3228 47.7278 20.3998 48.4418 17.1008 48.4418C13.7599 48.4418 10.7951 47.7278 8.20579 46.2997C5.65859 44.8285 3.65406 42.8162 2.19243 40.263C0.730812 37.7098 0 34.7672 0 31.4351C0 31.3577 0.000383294 31.2805 0.00114988 31.2035C0.000383118 31.1299 0 31.0562 0 30.9823C0 27.7389 0.71708 24.8746 2.151 22.3894C3.62717 19.9042 5.65165 17.9666 8.2242 16.5766C8.60682 16.367 8.99712 16.1728 9.39508 15.9939C11.6702 14.9503 14.1969 14.4284 16.9755 14.4284C17.0036 14.4284 17.0316 14.4284 17.0595 14.4285ZM12.9514 28.4612C12.5489 29.2169 12.3477 30.0821 12.3477 31.0571C12.3477 32.0199 12.5489 32.873 12.9514 33.6164C13.366 34.3598 13.9331 34.9387 14.6527 35.353C15.3723 35.7796 16.2017 35.9929 17.1408 35.9929C18.0798 35.9929 18.9092 35.7796 19.6288 35.353C20.3484 34.9387 20.9094 34.3537 21.3119 33.5981C21.7265 32.8547 21.9339 31.9955 21.9339 31.0206C21.9339 30.0578 21.7265 29.1986 21.3119 28.4429C20.9094 27.6996 20.3484 27.1146 19.6288 26.688C18.9092 26.2737 18.0799 26.0665 17.1408 26.0665C16.2017 26.0665 15.3723 26.2797 14.6527 26.7063C13.9331 27.1329 13.366 27.7179 12.9514 28.4612Z" fill="white"/>
<path fill-rule="evenodd" clip-rule="evenodd" d="M196.778 14.4285C196.806 14.4284 196.835 14.4284 196.863 14.4284C200.237 14.4284 203.21 15.1445 205.783 16.5766C208.398 17.9666 210.422 19.9042 211.856 22.3894C213.067 24.4287 213.782 26.7231 213.999 29.2728C214.011 29.4112 213.901 29.5291 213.762 29.5291C213.643 29.5291 213.543 29.4419 213.524 29.3246C213.213 27.3734 212.551 25.5922 211.539 23.9811C210.746 22.6802 209.77 21.5396 208.612 20.5591L201.066 26.6902C201.421 27.0522 201.725 27.4661 201.976 27.932C202.472 28.8369 202.719 29.8658 202.719 31.0188C202.719 32.1863 202.472 33.2152 201.976 34.1055C201.723 34.5817 201.418 35.0013 201.06 35.3643L209.963 42.598C208.76 44.0765 207.302 45.3104 205.589 46.2997C203.041 47.7278 200.118 48.4418 196.819 48.4418C193.478 48.4418 190.514 47.7278 187.924 46.2997C185.377 44.8285 183.373 42.8162 181.911 40.263C180.449 37.7098 179.718 34.7672 179.718 31.4351C179.718 31.3577 179.719 31.2805 179.72 31.2035C179.719 31.1299 179.718 31.0562 179.718 30.9823C179.718 27.7389 180.436 24.8746 181.869 22.3894C183.346 19.9042 185.37 17.9666 187.943 16.5766C188.325 16.367 188.716 16.1728 189.114 15.9939C191.389 14.9503 193.915 14.4284 196.694 14.4284C196.722 14.4284 196.75 14.4284 196.778 14.4285ZM192.67 28.4612C192.267 29.2169 192.066 30.0821 192.066 31.0571C192.066 32.0199 192.267 32.873 192.67 33.6164C193.084 34.3598 193.652 34.9387 194.371 35.353C195.091 35.7796 195.92 35.9929 196.859 35.9929C197.798 35.9929 198.628 35.7796 199.347 35.353C200.067 34.9387 200.628 34.3537 201.03 33.5981C201.445 32.8547 201.652 31.9955 201.652 31.0206C201.652 30.0578 201.445 29.1986 201.03 28.4429C200.628 27.6996 200.067 27.1146 199.347 26.688C198.628 26.2737 197.798 26.0665 196.859 26.0665C195.92 26.0665 195.091 26.2797 194.371 26.7063C193.652 27.1329 193.084 27.7179 192.67 28.4612Z" fill="white"/>
</svg>
